<?xml version="1.0" encoding="UTF-8" standalone="no"?>
<svg width="307px" height="425px" version="1.1" xmlns="http://www.w3.org/2000/svg" xmlns:xlink="http://www.w3.org/1999/xlink" xmlns:sketch="http://www.bohemiancoding.com/sketch/ns">
    <title>greenbag</title>
    <description>Created with Sketch (http://www.bohemiancoding.com/sketch)</description>
    <defs></defs>
    <g id="Page 1" fill="rgb(223,223,223)" fill-rule="evenodd">
        <g id="Group">
            <path d="M76.8942853,134.763433 C75.6542344,127.598853 75,120.148214 75,112.5 C75,56.4430951 110.145645,11 153.5,11 C196.854355,11 232,56.4430951 232,112.5 C232,121.874743 231.017049,130.952639 229.177137,139.570783 C229.300264,135.411729 229.246851,131.182589 229.007813,126.896484 C225.602416,65.8355773 191.912283,16.3359375 153.758789,16.3359375 C115.605295,16.3359375 81.3371548,65.8355773 77.21875,126.896484 C77.0403488,129.541523 76.9328935,132.164867 76.8942853,134.763433 Z M76.8942853,134.763433" id="Oval 5" fill="rgb(193,250,0)"></path>
            <path d="M27.46875,368.177368 C34.292969,347.362549 61.6601562,112 61.6601562,112 L151.734405,112 L154.265594,112 L244.339844,112 C244.339844,112 271.707031,347.362549 278.53125,368.177368 C285.355469,388.992188 295,413 295,413 C295,413 167.569231,413.000028 152.999945,413.000004 C138.430667,413.000028 11,413 11,413 C11,413 20.6445309,388.992187 27.46875,368.177368 Z M27.46875,368.177368" id="Rectangle 2" fill="rgb(194,250,0)"></path>
        </g>
        <g id="Group">
            <path d="M77.2291667,135 C79.564871,135 81.4583333,133.432997 81.4583333,131.5 C81.4583333,129.567003 79.564871,128 77.2291667,128 C74.8934623,128 73,129.567003 73,131.5 C73,133.432997 74.8934623,135 77.2291667,135 Z M77.2291667,135" id="Oval 4 copy" fill="rgb(254,255,255)"></path>
            <path d="M227.229167,135 C229.564871,135 231.458333,133.432997 231.458333,131.5 C231.458333,129.567003 229.564871,128 227.229167,128 C224.893462,128 223,129.567003 223,131.5 C223,133.432997 224.893462,135 227.229167,135 Z M227.229167,135" id="Oval 4 copy 2" fill="rgb(254,255,255)"></path>
        </g>
    </g>
</svg>